PathFileType	4	(X/Y/Z)	Run_400 02
DataRate	CameraRate	NumFrames	NumMarkers	Units	OrigDataRate	OrigDataStartFrame	OrigNumFrames
100	100	7	42	mm	100	42	128
Frame#	Time	RASI			LPSI			RPSI			RTH1			RTH2			RTH3			LTH1			LTH2			LTH3			RTB1			RTB2			RTB3			LTB1			LTB2			LTB3			RCAL			RTOE			RMT5			LCAL			LTOE			LMT5			LACR			RACR			CLAV			C7			RUA1			RUA2			RUA3			RLEL			RMEL			LUA2			LUA3			LLEL			LMEL			RFAsuperior			RFAradius			RFAulna			LFAsuperior			LFAradius			LFAulna			LUA1			LASI			
		X1	Y1	Z1	X2	Y2	Z2	X3	Y3	Z3	X4	Y4	Z4	X5	Y5	Z5	X6	Y6	Z6	X7	Y7	Z7	X8	Y8	Z8	X9	Y9	Z9	X10	Y10	Z10	X11	Y11	Z11	X12	Y12	Z12	X13	Y13	Z13	X14	Y14	Z14	X15	Y15	Z15	X16	Y16	Z16	X17	Y17	Z17	X18	Y18	Z18	X19	Y19	Z19	X20	Y20	Z20	X21	Y21	Z21	X22	Y22	Z22	X23	Y23	Z23	X24	Y24	Z24	X25	Y25	Z25	X26	Y26	Z26	X27	Y27	Z27	X28	Y28	Z28	X29	Y29	Z29	X30	Y30	Z30	X31	Y31	Z31	X32	Y32	Z32	X33	Y33	Z33	X34	Y34	Z34	X35	Y35	Z35	X36	Y36	Z36	X37	Y37	Z37	X38	Y38	Z38	X39	Y39	Z39	X40	Y40	Z40	X41	Y41	Z41	X42	Y42	Z42	

27	0.91	1147.705566	1021.233574	-223.664691	991.175158	1104.87134	-401.693839	985.350471	1099.291334	-308.515224	1046.046693	852.345402	-179.603212	1030.193129	748.857557	-200.832218	900.666243	660.5449139999999	-211.021315	1111.827845	918.6487069999999	-543.453953	1233.543841	847.871446	-509.213421	1230.092895	710.418049	-498.14704	793.540207	413.779535	-286.277267	695.883872	354.013684	-243.560977	672.519708	280.892168	-307.97806	1290.018552	439.380502	-427.07897	1238.704992	389.884987	-468.863448	1238.652981	309.079777	-413.140821	537.847561	294.50922	-308.282601	651.080618	88.30971700000001	-335.363865	617.689082	83.129257	-261.987604	1092.375851	199.670631	-392.426575	1356.863334	117.681876	-373.01289	1300.283366	131.428177	-459.720373	1145.441619	1579.457696	-496.587071	1221.64454	1544.344313	-182.101445	1227.325337	1491.719185	-327.226504	1122.227577	1593.516811	-324.37306	1206.076916	1409.716442	-97.004907	1144.266853	1396.469189	-68.449004	1166.811064	1330.756939	-58.813938	1148.445831	1250.984606	-34.404483	1074.913894	1243.976629	-99.50540700000001	962.582552	1550.1889	-498.83804	920.9064	1507.882179	-569.742083	854.074853	1469.11574	-581.759424	848.504058	1450.999455	-489.69381	1214.638602	1289.425463	-83.550862	1289.601457	1362.389861	-211.971395	1321.866115	1297.079356	-207.239923	907.249924	1401.597223	-598.3615569999999	1056.709734	1302.158958	-565.069438	1011.036476	1250.59635	-582.790516	1031.71426	1559.420222	-558.140909	1161.149763	1039.705734	-468.920065	
28	0.92	1149.982786	1024.525297	-223.249584	993.159688	1108.643028	-400.261626	988.138026	1103.73865	-306.917743	1046.107742	856.917038	-178.624439	1027.865144	754.040663	-201.729104	896.5718460000001	668.8417920000001	-211.800256	1111.944729	919.5463130000001	-541.606118	1232.386446	846.71966	-508.332732	1225.934795	708.916671	-496.938075	781.387052	425.207456	-287.935111	682.301605	368.391384	-244.259983	654.491321	296.44988	-308.281533	1301.689015	437.763239	-428.317335	1256.261137	382.093967	-468.393316	1265.552918	302.738524	-412.144281	524.801164	319.152604	-306.982124	616.813814	102.817407	-337.768949	582.249559	98.22282300000001	-265.8358	1132.983232	177.892282	-388.008346	1403.994677	118.250764	-370.846098	1346.0578	131.805584	-458.293651	1146.111763	1583.253908	-497.439827	1223.242218	1550.942317	-184.932764	1228.556565	1496.6681	-328.483375	1122.774114	1597.660754	-325.339987	1209.999829	1418.658424	-97.168604	1148.145601	1406.743622	-68.078124	1170.973455	1341.002829	-56.379269	1152.452229	1260.575696	-30.841197	1075.571157	1253.600553	-93.184043	964.064976	1555.49449	-498.473245	921.298702	1514.656264	-570.146749	854.232907	1474.384936	-581.7196729999999	849.224976	1455.492718	-489.802437	1217.649021	1297.525498	-82.52314699999999	1288.299854	1369.965433	-213.72316	1318.976459	1304.117557	-211.242053	908.349452	1408.295206	-598.798255	1060.076172	1310.840439	-566.647231	1015.248679	1258.602218	-584.617847	1032.612302	1563.914473	-558.914667	1163.277959	1043.742397	-467.501298	
29	0.93	1151.507959	1027.587822	-222.44625	994.633567	1111.058291	-399.06288	989.948636	1107.112314	-305.56657	1046.713636	860.465292	-177.842519	1027.541998	757.6649640000001	-203.056463	896.162789	673.949955	-212.036233	1111.254811	917.399217	-539.464657	1229.732326	842.758272	-508.084676	1220.989981	705.409364	-496.613191	770.6667619999999	434.16783	-289.675687	669.339832	382.33789	-245.266722	635.954869	312.932654	-309.118094	1310.49923	435.444472	-428.696334	1272.03476	374.440528	-467.606645	1289.842728	297.493307	-410.623175	509.414551	344.338104	-304.800521	583.974234	122.340333	-342.315977	549.805032	117.672164	-270.817735	1172.485676	159.558907	-383.555229	1447.297187	122.827442	-369.505593	1387.984926	135.617238	-457.670101	1146.735417	1586.033125	-498.715144	1224.63241	1556.121107	-187.249762	1229.796705	1500.629025	-329.805532	1123.462784	1600.902184	-326.303336	1212.52572	1426.046871	-97.08814700000001	1150.740272	1415.441972	-67.48289200000001	1173.802634	1349.650574	-53.856334	1154.61236	1268.691141	-27.231668	1075.785647	1262.224308	-87.54182299999999	964.654313	1557.875176	-499.382167	922.053222	1517.75985	-571.754179	855.247936	1476.088225	-583.196042	850.309784	1456.343086	-491.486942	1219.266726	1303.530507	-81.30823700000001	1286.986693	1374.183979	-215.247137	1315.922572	1307.743889	-213.941656	910.911688	1411.656346	-600.562712	1065.006797	1317.366522	-568.68844	1021.282446	1264.275675	-586.993868	1033.234864	1565.856278	-559.51221	1164.894791	1046.421377	-466.320145	
30	0.9399999999999999	1152.634805	1030.461212	-221.369115	995.671111	1112.091689	-398.079365	990.908848	1109.275222	-304.530677	1048.079588	862.722451	-177.687327	1029.206713	759.61602	-205.097496	899.129093	675.877933	-212.087014	1110.238279	913.838577	-537.485619	1226.484793	836.561257	-508.226063	1215.267083	700.162525	-497.060963	761.2581719999999	441.509924	-291.354472	657.068144	396.512659	-246.256196	617.85074	330.692593	-310.252295	1316.355707	432.723856	-428.437762	1285.047484	367.566269	-466.818147	1310.684734	293.620204	-409.173831	492.732962	370.19692	-301.64173	554.116326	146.029296	-348.234208	521.692539	140.612137	-276.105165	1209.215965	145.049767	-379.993401	1485.700134	130.646013	-368.355913	1424.978973	142.564087	-457.180278	1147.476706	1587.74712	-500.329898	1225.809484	1559.851886	-188.842457	1231.008401	1503.563441	-331.017992	1124.299135	1603.265542	-327.408138	1213.764737	1431.842097	-96.63945099999999	1152.42621	1422.186623	-66.69748800000001	1175.192047	1356.458976	-51.399171	1154.798955	1275.378519	-23.780612	1075.032331	1269.972019	-82.78633600000001	964.634851	1557.340856	-501.56064	923.416548	1517.288916	-574.4399519999999	857.152434	1474.578983	-586.076494	852.133077	1453.996324	-494.567429	1219.32473	1307.520181	-79.858206	1285.683033	1374.95712	-216.511514	1313.013385	1307.849843	-215.06888	914.9352699999999	1411.95359	-603.514668	1071.381617	1321.73927	-571.085612	1029.036935	1267.653984	-589.7506530000001	1033.871929	1565.627218	-560.1988710000001	1166.072979	1047.714651	-465.352416	
31	0.95	1153.707374	1033.010534	-220.143415	996.452308	1111.829735	-397.265536	991.415675	1110.21656	-303.816914	1050.348141	863.423865	-178.436395	1032.47278	760.056284	-207.612471	904.38753	675.2621820000001	-212.509251	1109.116444	910.187459	-536.133418	1223.269179	828.7360609999999	-508.528818	1208.232233	693.234945	-498.03699	753.680892	447.975091	-292.860216	646.439298	411.177973	-246.980452	601.667809	349.418178	-311.170036	1319.64675	429.976404	-428.512191	1294.162098	362.034884	-466.481721	1327.460075	291.340957	-408.773741	477.420854	396.828198	-297.964375	527.78242	172.264685	-354.093949	497.165147	165.692842	-281.05556	1241.344246	134.420143	-377.752943	1518.004204	140.440206	-367.099849	1455.866597	151.706314	-456.57307	1148.456999	1588.348529	-502.164275	1226.703405	1562.144799	-189.785542	1232.157275	1505.435068	-331.952052	1125.249439	1604.771828	-328.75953	1213.904173	1435.948877	-95.86909900000001	1153.193105	1426.999908	-65.858222	1174.981119	1361.454801	-49.191101	1152.981356	1280.813355	-20.769842	1072.723263	1276.829399	-79.072813	964.560319	1554.207504	-504.948519	925.570645	1513.797088	-578.162865	860.066452	1470.246806	-590.217663	854.875908	1448.863588	-498.9011	1217.807363	1309.665499	-78.17523799999999	1284.385131	1372.357521	-217.49999	1310.195844	1304.561242	-214.490159	920.3195940000001	1409.540837	-607.451428	1079.014954	1323.962979	-573.66642	1038.343063	1268.773145	-592.833131	1034.872194	1563.674161	-561.8910530000001	1166.992235	1047.709414	-464.547945	
32	0.96	1154.871557	1034.929507	-218.919044	997.122738	1110.546927	-396.562933	991.8381429999999	1110.017255	-303.29165	1053.360514	862.563494	-179.915749	1036.598646	759.322452	-209.900684	910.5419020000001	672.889273	-213.559121	1107.957895	906.977622	-535.575906	1219.937923	819.904038	-509.084085	1199.298453	684.814768	-499.299765	748.576725	453.668739	-293.980034	638.541618	426.137078	-247.319418	588.658667	368.363226	-311.341992	1320.9909	427.529999	-429.608469	1299.004693	357.997612	-466.734213	1339.80921	290.512975	-409.843059	466.129182	424.199458	-294.488842	504.670017	199.542522	-358.483718	474.503297	192.101291	-285.14775	1267.106428	127.36977	-376.620523	1543.022899	150.402281	-365.973326	1479.495486	161.182844	-456.131733	1149.737885	1587.815564	-504.08362	1227.280406	1563.065731	-190.385639	1233.232901	1506.181421	-332.545562	1126.270271	1605.400591	-330.407542	1212.982606	1438.312049	-95.021123	1152.635737	1430.256812	-65.198938	1173.039297	1364.888241	-47.359369	1149.182093	1285.112381	-18.399713	1068.738702	1282.616498	-76.572907	964.969329	1548.944308	-509.424688	928.5984979999999	1507.932249	-582.896037	864.173046	1463.398609	-595.494696	858.541281	1441.22298	-504.367783	1214.758258	1310.121488	-76.377168	1283.069643	1366.578197	-218.195356	1307.181206	1298.151497	-212.287847	926.967818	1404.680577	-612.199344	1087.707088	1324.057249	-576.260164	1049.001485	1267.687549	-596.260657	1036.508639	1560.176651	-565.114339	1167.799802	1046.685447	-463.850358	
33	0.97	1156.083251	1035.86155	-217.878742	997.671315	1108.627577	-395.912218	992.258755	1108.766924	-302.744959	1056.687924	860.554729	-181.449335	1040.846011	757.720177	-211.282129	916.662001	669.2595700000001	-214.968192	1106.884783	904.123342	-535.481249	1215.883198	810.537461	-510.182606	1188.8157	675.61531	-500.63232	746.268895	458.323623	-294.510101	634.042467	441.033625	-247.281133	579.486781	386.975599	-310.646066	1320.909014	425.429578	-431.372051	1300.379434	355.061009	-467.201228	1347.652134	290.373613	-411.676337	460.298163	452.142284	-291.794869	484.608136	227.106139	-360.648175	453.1018	219.89865	-287.828015	1285.160257	123.137832	-375.94547	1559.927798	158.249836	-365.446657	1495.0418	168.524001	-456.317875	1151.374664	1586.111558	-505.938583	1227.546792	1562.706105	-190.92477	1234.247693	1505.692927	-332.854975	1127.31756	1605.066855	-332.337304	1210.877838	1439.114146	-94.329424	1150.334716	1432.398349	-65.035551	1169.36703	1367.064762	-45.938143	1143.533248	1288.265485	-16.716545	1063.417142	1287.115357	-75.374319	966.167534	1541.962855	-514.7996460000001	932.552902	1500.129326	-588.5055620000001	869.607132	1454.266089	-601.772756	863.105464	1431.303813	-510.824681	1210.260468	1308.956322	-74.651225	1281.699626	1357.868581	-218.510319	1303.633761	1288.920422	-208.819788	934.855012	1397.541436	-617.632374	1097.285473	1322.058822	-578.771239	1060.81412	1264.500231	-600.017505	1038.954396	1555.110134	-569.436065	1168.489496	1045.033364	-463.211367	
